{"title":"The.Four.Seasons.1981.DVDrip-telly.flv","uid":8335705,"size":392732167,"categoryP":"video","categoryS":"movies","magnet":"?xt=urn:btih:583a72e7269a23ce3115a9450d49ae40f8c5ae27&amp;dn=The.Four.Seasons.1981.DVDrip-telly.flv&amp;tr=udp%3A%2F%2Ftracker.openbittorrent.com%3A80&amp;tr=udp%3A%2F%2Fopen.demonii.com%3A1337&amp;tr=udp%3A%2F%2Ftracker.coppersurfer.tk%3A6969&amp;tr=udp%3A%2F%2Fexodus.desync.com%3A6969","seeders":1,"leechers":0,"uploader":"yousef86","files":-1,"time":1364984110,"description":"::Release Info::\n================\nRelease Title: The.Four.Seasons.1981.DVDrip-telly\nEncode date:\n\n::IMDB and TMDB Info::\n======================\nTMDB Link: http://www.themoviedb.org/movie/25113\nIMDB Link: http://www.imdb.com/title/tt0082405\nStoryline:Three middle-aged wealthy couples take vacations together in Spring, Summer, Autumn and Winter. Along the way we are treated to mid-life, marital, parental and other crises.\nGenre:Comedy | Drama | Romance\nRelease date:22/05/1981\n\n::Actors::\n==========\nAlan Alda ... Jack Burroughs\nCarol Burnett ... Kate Burroughs\nLen Cariou ... Nick Callan\nSandy Dennis ... Anne Callan\nRita Moreno ... Claudia Zimmer\nJack Weston ... Danny Zimmer\nBess Armstrong ... Ginny Newley (Callan)\n\nGeneral\nComplete name : The.Four.Seasons.1981.DVDrip-telly.flv\nFormat : Flash Video\nFile size : 375 MiB\nDuration : 1h 43mn\nOverall bit rate : 506 Kbps\nTagging application : Yet Another Metadata Injector for FLV - Version 1.9\n\nVideo\n=====\nFormat : AVC\nFormat/Info : Advanced Video Codec\nFormat profile : &lt;a class=&quot;__cf_email__&quot; href=&quot;/cdn-cgi/l/email-protection&quot; data-cfemail=&quot;96defff1fed6daa5b8a6&quot;&gt;[email&amp;#160;protected]&lt;/a&gt;&lt;script cf-hash='f9e31' type=&quot;text/javascript&quot;&gt;\n/* &lt;![CDATA[ */!function(){try{var t=&quot;currentScript&quot;in document?document.currentScript:function(){for(var t=document.getElementsByTagName(&quot;script&quot;),e=t.length;e--;)if(t[e].getAttribute(&quot;cf-hash&quot;))return t[e]}();if(t&amp;&amp;t.previousSibling){var e,r,n,i,c=t.previousSibling,a=c.getAttribute(&quot;data-cfemail&quot;);if(a){for(e=&quot;&quot;,r=parseInt(a.substr(0,2),16),n=2;a.length-n;n+=2)i=parseInt(a.substr(n,2),16)^r,e+=String.fromCharCode(i);e=document.createTextNode(e),c.parentNode.replaceChild(e,c)}}}catch(u){}}();/* ]]&gt; */&lt;/script&gt;\nFormat settings, CABAC : Yes\nFormat settings, ReFrames : 4 frames\nCodec ID : 7\nDuration : 1h 43mn\nBit rate : 400 Kbps\nWidth : 640 pixels\nHeight : 360 pixels\nDisplay aspect ratio : 16:9\nFrame rate mode : Constant\nFrame rate : 25.000 fps\nColor space : YUV\nChroma subsampling : 4:2:0\nBit depth : 8 bits\nScan type : Progressive\nBits/(Pixel*Frame) : 0.069\nStream size : 299 MiB (80%)\nWriting library : x264 core 114 r1924 08d04a4\n\nAudio\n=====\nFormat : AAC\nFormat/Info : Advanced Audio Codec\nFormat profile : LC\nCodec ID : 10\nDuration : 1h 43mn\nBit rate : 94.4 Kbps\nChannel(s) : 2 channels\nChannel positions : Front: L R\nSampling rate : 44.1 KHz\nCompression mode : Lossy\nStream size : 74.3 MiB (20%)","torrent":{"xt":"urn:btih:583a72e7269a23ce3115a9450d49ae40f8c5ae27","amp;dn":"The.Four.Seasons.1981.DVDrip-telly.flv","amp;tr":["udp%3A%2F%2Ftracker.openbittorrent.com%3A80","udp%3A%2F%2Fopen.demonii.com%3A1337","udp%3A%2F%2Ftracker.coppersurfer.tk%3A6969","udp%3A%2F%2Fexodus.desync.com%3A6969"],"infoHash":"583a72e7269a23ce3115a9450d49ae40f8c5ae27","infoHashBuffer":{"type":"Buffer","data":[88,58,114,231,38,154,35,206,49,21,169,69,13,73,174,64,248,197,174,39]},"announce":[],"urlList":[]}}